<?xml version="1.0" encoding="UTF-8"?><svg id="Layer_2" xmlns="http://www.w3.org/2000/svg" viewBox="0 0 276.73 234.74"><defs><style>.cls-1{fill:#fff;}.cls-2{fill:#6366f1;}</style></defs><g id="Layer_2-2"><path class="cls-1" d="M111.49,10.66L2.89,198.76c-4.97,8.61-3.18,19.99,2.66,27.63,4.94,6.46,13.46,9.06,21.25,6.69l163.61-44.31c3.8-1.03,7.83.58,9.86,3.95l21.9,36.17c2.2,3.63,6.13,5.85,10.38,5.85h40.74c2.65,0,4.3-2.87,2.96-5.16L148.42,10.66c-8.21-14.22-28.73-14.22-36.94,0Z"/><path class="cls-2" d="M125.17,69.99l-51.09,91.99c-2.41,4.35,1.57,9.47,6.38,8.19l89.45-23.73c3.56-.95,5.28-5,3.47-8.22l-38.36-68.25c-2.16-3.85-7.71-3.83-9.85.03Z"/></g></svg>