<?xml version="1.0" encoding="UTF-8"?><svg id="Layer_2" xmlns="http://www.w3.org/2000/svg" viewBox="0 0 1897.16 325.65"><defs><style>.cls-1{fill:#fff;}.cls-2{fill:#6366f1;}</style></defs><g id="Layer_2-2"><path class="cls-1" d="M111.49,15.99L2.89,204.08c-4.97,8.61-3.18,19.99,2.66,27.63,4.94,6.46,13.46,9.06,21.25,6.69l163.61-44.31c3.8-1.03,7.83.58,9.86,3.95l21.9,36.17c2.2,3.63,6.13,5.85,10.38,5.85h40.74c2.65,0,4.3-2.87,2.96-5.16L148.42,15.99c-8.21-14.22-28.73-14.22-36.94,0Z"/><path class="cls-1" d="M469.03,57.8v179.23c0,1.61-1.31,2.92-2.92,2.92h-43.17c-1.61,0-2.92-1.31-2.92-2.92v-14.69c0-2.72-3.37-3.95-5.15-1.89-13.11,15.12-30.2,23.62-53.13,23.62-41.48,0-67.19-28.45-67.19-74.38v-86.77c0-1.04.55-2,1.45-2.53l43.17-25.1c1.95-1.13,4.39.27,4.39,2.53v101.24c0,24.68,9.26,38.39,34.62,38.39,27.08,0,41.82-16.11,41.82-46.96v-67.63c0-1.04.55-2.01,1.46-2.53l43.17-25.06c1.95-1.13,4.39.27,4.39,2.53Z"/><path class="cls-1" d="M537.24,167.28v-66.66c0-1.61-1.31-2.92-2.92-2.92h-27.75c-1.61,0-2.92-1.31-2.92-2.92v-40.43c0-1.61,1.31-2.92,2.92-2.92h27.75c1.61,0,2.92-1.31,2.92-2.92v-18.47c0-1.04.56-2.01,1.46-2.53l43.17-24.96c1.95-1.13,4.39.28,4.39,2.53v43.43c0,1.61,1.31,2.92,2.92,2.92h64.08c1.61,0,2.92,1.31,2.92,2.92v40.43c0,1.61-1.31,2.92-2.92,2.92h-64.08c-1.61,0-2.92,1.31-2.92,2.92v63.92c0,22.28,10.63,33.94,30.17,33.94,10.22,0,22.22-3.27,36.28-8.15,1.67-.58,3.46.44,3.82,2.17l7.14,34.5c.25,1.21-.28,2.45-1.34,3.09-11.01,6.6-33.05,13.98-54.47,13.98-37.71,0-70.61-22.62-70.61-76.78Z"/><path class="cls-1" d="M870.73,203.06c-18.09,28.3-48.93,41.01-81.55,41.01-58.96,0-99.41-41.82-99.41-98.04s40.79-98.72,98.38-98.72c61.47,0,99.98,47.59,96.51,108.33-.09,1.54-1.38,2.73-2.92,2.73h-138.6c-1.78,0-3.16,1.58-2.9,3.34,4.22,27.94,24.18,41.91,48.6,41.91,17.68,0,33.24-7.53,40.48-20.9.79-1.46,2.6-2.02,4.04-1.19l37.37,21.53M828.43,122.38c2.02,0,3.41-2,2.75-3.92-6.33-18.41-21.25-30.71-43.37-30.71s-37.31,12.53-44.22,30.62c-.74,1.93.66,4,2.72,4h82.12Z"/><path class="cls-2" d="M1883.01,203.06c-18.09,28.3-48.93,41.01-81.55,41.01-58.96,0-99.41-41.82-99.41-98.04s40.79-98.72,98.38-98.72c61.47,0,99.98,47.59,96.51,108.33-.09,1.54-1.38,2.73-2.92,2.73h-138.6c-1.78,0-3.16,1.58-2.9,3.34,4.22,27.94,24.18,41.91,48.6,41.91,17.68,0,33.24-7.53,40.48-20.9.79-1.46,2.6-2.02,4.04-1.19l37.37,21.53M1840.71,122.38c2.02,0,3.41-2,2.75-3.92-6.33-18.41-21.25-30.71-43.37-30.71s-37.31,12.53-44.22,30.62c-.74,1.93.66,4,2.72,4h82.12Z"/><path class="cls-1" d="M1098.38,57.8v179.23c0,1.61-1.31,2.92-2.92,2.92h-43.17c-1.61,0-2.92-1.31-2.92-2.92v-14.69c0-2.72-3.37-3.95-5.15-1.89-13.12,15.12-30.2,23.62-53.13,23.62-41.48,0-67.19-28.45-67.19-74.38v-86.83c0-1.04.55-2.01,1.46-2.53l43.17-25.06c1.95-1.13,4.39.27,4.39,2.53v101.26c0,24.68,9.25,38.39,34.62,38.39,27.08,0,41.82-16.11,41.82-46.96v-67.63c0-1.04.55-2.01,1.46-2.53l43.17-25.06c1.95-1.13,4.39.27,4.39,2.53Z"/><path class="cls-1" d="M1146.45,80.33l43.17-25.06c1.95-1.13,4.39.27,4.39,2.53v15.39c0,2.91,3.76,4,5.36,1.57,12.12-18.3,30.57-27.45,53.6-27.45,3.23,0,5.92.18,8.33.41,1.5.14,2.64,1.41,2.64,2.91v44.55c0,1.72-1.48,3.06-3.19,2.91-2.45-.22-4.95-.39-8.81-.39-31.19,0-57.93,13.71-57.93,58.27v81.06c0,1.61-1.31,2.92-2.92,2.92h-43.17c-1.61,0-2.92-1.31-2.92-2.92V82.85c0-1.04.55-2.01,1.46-2.53Z"/><path class="cls-2" d="M1463.26,46.62h-106.25c-1.61,0-2.92,1.31-2.92,2.92v42.49c0,1.61,1.31,2.92,2.92,2.92h96.99c1.61,0,2.92,1.31,2.92,2.92v40.77c0,1.61-1.31,2.92-2.92,2.92h-96.99c-1.61,0-2.92,1.31-2.92,2.92v45.91c0,1.61,1.31,2.92,2.92,2.92h106.25c1.61,0,2.92,1.31,2.92,2.92v40.77c0,1.61-1.31,2.92-2.92,2.92h-155.27c-1.61,0-2.92-1.31-2.92-2.92V2.92c0-1.61,1.31-2.92,2.92-2.92h155.27c1.61,0,2.92,1.31,2.92,2.92v40.77c0,1.61-1.31,2.92-2.92,2.92Z"/><path class="cls-2" d="M1568.15,325.65h-45.71c-2.12,0-3.53-2.18-2.67-4.11l47-105.42c.34-.76.34-1.62,0-2.38l-70.32-158.21c-.86-1.93.56-4.11,2.67-4.11h45.67c1.17,0,2.23.7,2.69,1.78l43.18,101.92c1.01,2.37,4.37,2.38,5.38,0l43.51-101.94c.46-1.08,1.52-1.78,2.69-1.78h46.01c2.12,0,3.53,2.18,2.67,4.12l-120.1,268.38c-.47,1.05-1.52,1.73-2.67,1.73Z"/><path class="cls-2" d="M125.17,75.32l-51.09,91.99c-2.41,4.35,1.57,9.47,6.38,8.19l89.45-23.73c3.56-.95,5.28-5,3.47-8.22l-38.36-68.25c-2.16-3.85-7.71-3.83-9.85.03Z"/></g></svg>